<?xml version="1.0" encoding="UTF-8"?>
<svg id="Layer_1" xmlns="http://www.w3.org/2000/svg" version="1.1" viewBox="0 0 380.51 126.01">
  <!-- Generator: Adobe Illustrator 29.1.0, SVG Export Plug-In . SVG Version: 2.1.0 Build 142)  -->
  <defs>
    <style>
      .st0 {
        fill: #fff;
      }

      .st1 {
        fill: #f58345;
      }
    </style>
  </defs>
  <g>
    <path class="st0" d="M25.01,7.95v32.56h7.28c12.49,0,21.19-.59,25.8-8.92l13.08-23.64h17.1l-13.68,24.68c-3.87,6.99-7.58,11.3-13.98,13.98,7.43,2.08,11.3,6.99,16.06,15.16l14.12,24.68h-17.69l-13.08-23.19c-4.61-8.18-13.9-9.51-27.73-9.51h-7.28v32.71h-15.76V7.95h15.76Z"/>
    <path class="st0" d="M154.59,7.95v15.16h-27.65c-6.99,0-10.11,3.27-10.11,10.11v53.22h-15.76V30.85c0-15.76,5.8-22.9,21.26-22.9h32.26Z"/>
    <path class="st0" d="M251.39,7.95l-47.28,110.02h-16.95l14.72-34.34c-8.92,0-12.04-2.82-14.72-9.66L160.84,7.95h16.65l23.64,58.43c1.04,2.82,1.78,3.27,4.76,3.27h2.08l26.61-61.7h16.8Z"/>
    <path class="st0" d="M304.59,7.95c19.62,0,27.36,11,27.36,25.87v36.87c0,11.3-2.97,15.76-16.21,15.76h-36.72c-18.58,0-26.31-9.07-26.31-23.94s7.14-22.6,26.46-22.6h37.32v-5.95c0-6.1-3.42-10.85-12.04-10.85h-46.98V7.95h47.13ZM316.49,67.12v-14.72h-37.02c-8.33,0-11.3,3.42-11.3,9.22s3.12,9.51,11,9.51h33c3.12,0,4.31-1.19,4.31-4.01Z"/>
  </g>
  <rect class="st1" x="344.4" y="32.83" width="27.37" height="27.37"/>
</svg>
